<svg xmlns="http://www.w3.org/2000/svg" xmlns:svg="http://www.w3.org/2000/svg" id="svg194630" width="864.885" height="221.408" version="1.1" viewBox="0 0 228.834 58.581"><metadata id="metadata194627"/><g id="layer1" transform="translate(90.226649,-273.75722)"><g id="g194622" transform="translate(997.58958,163.05706)"><text id="text194074" x="-1022.754" y="150.272" xml:space="preserve" style="font-style:normal;font-weight:400;font-size:37.59195328px;line-height:22.55517006px;font-family:sans-serif;letter-spacing:0;word-spacing:0;fill:#892ca0;fill-opacity:1;stroke:none;stroke-width:.26458332px;stroke-linecap:butt;stroke-linejoin:miter;stroke-opacity:1"><tspan style="font-style:normal;font-variant:normal;font-weight:400;font-stretch:normal;font-family:Montserrat;-inkscape-font-specification:Montserrat;fill:#892ca0;fill-opacity:1;stroke-width:.26458332px" id="tspan194072" x="-1022.754" y="150.272">pod<tspan id="tspan194070" style="fill:#000">man</tspan></tspan></text><g id="g194220" transform="translate(-2257.9336,340.05556)"><path id="path194076" d="m 1200.0567,-176.59543 -19.2981,-9.23285 -4.8204,-20.8616 13.2871,-16.78059 21.3893,-0.0641 13.3849,16.70113 -4.699,20.88969 z" style="opacity:1;fill:#fff;fill-opacity:1;stroke:#892ca0;stroke-width:1.0583334;stroke-linecap:round;stroke-linejoin:round;stroke-miterlimit:4;stroke-dasharray:none;stroke-opacity:1"/><path style="fill:none;fill-rule:evenodd;stroke:#ccc;stroke-width:.79375005;stroke-linecap:butt;stroke-linejoin:miter;stroke-miterlimit:4;stroke-dasharray:none;stroke-opacity:.95294118" id="path194078" d="m 1189.7397,-221.65207 1.5045,2.52085"/><path id="path194080" d="m 1209.7268,-221.94151 -1.4308,2.56335" style="fill:none;fill-rule:evenodd;stroke:#ccc;stroke-width:.79375005;stroke-linecap:butt;stroke-linejoin:miter;stroke-miterlimit:4;stroke-dasharray:none;stroke-opacity:.95294118"/><g id="g194084" transform="rotate(106.71323,1247.9186,-137.82522)"><path style="fill:none;fill-rule:evenodd;stroke:#ccc;stroke-width:.79375005;stroke-linecap:butt;stroke-linejoin:miter;stroke-miterlimit:4;stroke-dasharray:none;stroke-opacity:.95294118" id="path194082" d="m 1189.7571,-94.267724 1.4678,2.542367"/></g><g id="g194088" transform="matrix(0.28758168,0.95775612,0.95775612,-0.28758168,925.52985,-1372.6632)"><path id="path194086" d="m 1189.7571,-94.267724 1.4678,2.542367" style="fill:none;fill-rule:evenodd;stroke:#ccc;stroke-width:.79375005;stroke-linecap:butt;stroke-linejoin:miter;stroke-miterlimit:4;stroke-dasharray:none;stroke-opacity:.95294118"/></g><path style="opacity:1;fill:none;fill-opacity:1;stroke:#3c6eb4;stroke-width:.79374993;stroke-linejoin:round;stroke-miterlimit:4;stroke-dasharray:none;stroke-opacity:1" id="path194090" d="m 1217.3928,-198.86664 c -1.6026,0.3763 -2.7924,0.4881 -4.4867,0.49355"/><g style="stroke-width:1.07322586" id="g194148" transform="matrix(0.93201038,0,0,0.93153044,84.668387,39.521136)"><path style="opacity:1;fill:#d7d8da;fill-opacity:1;stroke:#000;stroke-width:.85187292;stroke-linejoin:round;stroke-miterlimit:4;stroke-dasharray:none;stroke-opacity:1" id="path194092" d="m 1196.4002,-277.28841 c -6.3145,0 -11.4334,5.11824 -11.4334,11.4319 0,5.60953 0.1555,10.87478 -3.8973,11.52796 2.2201,1.74955 31.1822,1.47773 31.1822,0.0657 -3.9446,-0.40986 -3.9311,-5.05055 -4.1745,-11.47895 -0.2435,-6.42839 -5.3624,-11.54663 -11.677,-11.54663 z"/><ellipse id="ellipse194094" cx="1196.49" cy="-221.692" rx="1.219" ry="1.278" transform="matrix(0.99938194,-0.03515294,0.03512104,0.99938307,0,0)" style="opacity:1;fill:#f1f1f1;fill-opacity:1;stroke:none;stroke-width:.85187298;stroke-linecap:square;stroke-linejoin:miter;stroke-miterlimit:4;stroke-dasharray:none;stroke-dashoffset:5.99999952;stroke-opacity:1"/><ellipse id="ellipse194096" cx="1205.798" cy="-224.762" rx="3.837" ry="3.392" transform="matrix(0.99946418,-0.03273147,0.0377188,0.99928839,0,0)" style="opacity:1;fill:#fff;fill-opacity:1;stroke:#60605b;stroke-width:.85187823;stroke-linecap:square;stroke-linejoin:miter;stroke-miterlimit:4;stroke-dasharray:none;stroke-dashoffset:5.99999952;stroke-opacity:1"/><path id="path194098" d="m 1203.9748,-270.3367 c -0.3302,-0.40944 -0.849,-0.66007 -1.375,-0.66415 -0.4959,-0.004 -0.9897,0.21029 -1.3258,0.57498" style="fill:none;fill-opacity:1;stroke:#000;stroke-width:.56791532;stroke-linecap:square;stroke-linejoin:miter;stroke-miterlimit:4;stroke-dasharray:none;stroke-dashoffset:0;stroke-opacity:1"/><g style="stroke-width:.82007539;stroke-miterlimit:4;stroke-dasharray:none" id="g194106" transform="matrix(0.69366503,-0.00293008,0.00289825,0.69135666,529.16872,-257.19815)"><g id="g194104" transform="translate(0,-0.52916667)" style="stroke-width:.82007539;stroke-miterlimit:4;stroke-dasharray:none"><path id="path194100" d="m 962.30591,-5.7829972 0.0993,1.9843749 c 0,0 1.58751,1.4221355 2.51355,-0.033073 0,0 -0.0993,-0.8268214 -0.16541,-1.0914047" style="fill:none;fill-rule:evenodd;stroke:#000;stroke-width:.82007539;stroke-linecap:butt;stroke-linejoin:miter;stroke-miterlimit:4;stroke-dasharray:none;stroke-opacity:1"/><path style="fill:none;fill-rule:evenodd;stroke:#000;stroke-width:.82007539;stroke-linecap:butt;stroke-linejoin:miter;stroke-miterlimit:4;stroke-dasharray:none;stroke-opacity:1" id="path194102" d="m 962.28751,-5.7829972 -0.0993,1.9843749 c 0,0 -1.58751,1.4221355 -2.51355,-0.033073 0,0 0.0993,-0.8268214 0.16541,-1.0914047"/></g></g><path style="fill:gray;fill-opacity:1;stroke:#000;stroke-width:.56791532;stroke-linecap:square;stroke-linejoin:miter;stroke-miterlimit:4;stroke-dasharray:none;stroke-dashoffset:0;stroke-opacity:1" id="path194108" d="m 1197.9362,-265.07184 c -0.1012,-0.25799 -0.1029,-0.77483 -0.4026,-0.77357 -0.2995,0.002 -0.5774,-0.1914 -0.872,-0.19011 -0.2946,0.002 -0.571,0.19636 -0.8707,0.19765 -0.2993,0.002 -0.2975,0.51817 -0.396,0.77704 -0.1011,0.25897 1.275,1.09288 1.275,1.09288 0,0 1.3673,-0.84575 1.2663,-1.10389 z"/><path style="fill:none;fill-opacity:1;stroke:#000;stroke-width:.56791532;stroke-linecap:square;stroke-linejoin:miter;stroke-miterlimit:4;stroke-dasharray:none;stroke-dashoffset:0;stroke-opacity:1" id="path194110" d="m 1188.9919,-270.28459 c 0.3005,-0.43161 0.8005,-0.71808 1.3248,-0.75912 0.4944,-0.0387 1.002,0.14023 1.3629,0.48043"/><g style="stroke-width:1.07322586" id="g194116" transform="translate(-0.1322934,-148.99351)"><ellipse style="fill:#000;fill-opacity:1;stroke:#892ca0;stroke-width:.8518728;stroke-linecap:square;stroke-linejoin:miter;stroke-miterlimit:4;stroke-dasharray:none;stroke-dashoffset:0;stroke-opacity:1" id="ellipse194112" cx="-1206.346" cy="-75.636" rx="1.87" ry="1.943" transform="matrix(-0.99938215,0.03514721,0.03512674,0.99938287,0,0)"/><ellipse id="ellipse194114" cx="1206.915" cy="-76.183" rx=".919" ry=".968" transform="matrix(0.99938215,-0.03514721,0.03512674,0.99938287,0,0)" style="fill:#fff;fill-opacity:1;stroke:none;stroke-width:.8518728;stroke-linecap:square;stroke-linejoin:miter;stroke-miterlimit:4;stroke-dasharray:none;stroke-dashoffset:0;stroke-opacity:1"/></g><g style="stroke:#60605b;stroke-width:.65475416;stroke-miterlimit:4;stroke-dasharray:none" id="g194126" transform="matrix(-0.86763199,-0.04368486,-0.04400126,0.8648962,2029.5877,-215.68906)"><g id="g194124" style="stroke-width:.65475416"><path style="fill:none;fill-rule:evenodd;stroke:#60605b;stroke-width:.65475416;stroke-linecap:butt;stroke-linejoin:miter;stroke-miterlimit:4;stroke-dasharray:none;stroke-opacity:1" id="path194118" d="m 956.32834,-6.2874931 c -2.17461,0.00852 -3.90258,0.727992 -5.25392,1.62519"/><path style="fill:none;fill-rule:evenodd;stroke:#60605b;stroke-width:.65475416;stroke-linecap:butt;stroke-linejoin:miter;stroke-miterlimit:4;stroke-dasharray:none;stroke-opacity:1" id="path194120" d="m 957.00529,-5.3889116 c -2.45021,0.3102076 -3.99116,1.6666651 -5.21618,2.999397"/><path style="fill:none;fill-rule:evenodd;stroke:#60605b;stroke-width:.65475416;stroke-linecap:butt;stroke-linejoin:miter;stroke-miterlimit:4;stroke-dasharray:none;stroke-opacity:1" id="path194122" d="m 957.14608,-4.4502461 c -2.0377,0.8062397 -3.03766,2.4684328 -3.7999,4.05763317"/></g></g><g id="g194136" transform="matrix(0.86340059,-0.09610492,0.09623303,0.86064955,368.1354,-165.50024)" style="stroke:#60605b;stroke-width:.65475416;stroke-miterlimit:4;stroke-dasharray:none"><g style="stroke-width:.65475416" id="g194134"><path id="path194128" d="m 956.32834,-6.2874931 c -2.17461,0.00852 -3.90258,0.727992 -5.25392,1.62519" style="fill:none;fill-rule:evenodd;stroke:#60605b;stroke-width:.65475416;stroke-linecap:butt;stroke-linejoin:miter;stroke-miterlimit:4;stroke-dasharray:none;stroke-opacity:1"/><path id="path194130" d="m 957.00529,-5.3889116 c -2.45021,0.3102076 -3.99116,1.6666651 -5.21618,2.999397" style="fill:none;fill-rule:evenodd;stroke:#60605b;stroke-width:.65475416;stroke-linecap:butt;stroke-linejoin:miter;stroke-miterlimit:4;stroke-dasharray:none;stroke-opacity:1"/><path id="path194132" d="m 956.99206,-4.4197862 c -2.0377,0.8062397 -3.03766,2.4684328 -3.7999,4.05763312" style="fill:none;fill-rule:evenodd;stroke:#60605b;stroke-width:.65475416;stroke-linecap:butt;stroke-linejoin:miter;stroke-miterlimit:4;stroke-dasharray:none;stroke-opacity:1"/></g></g><g style="stroke-width:1.07322586" id="g194142" transform="translate(-0.1322934,-149.16808)"><ellipse id="ellipse194138" cx="1193.299" cy="-87.545" rx="1.87" ry="1.943" transform="matrix(0.99967764,-0.0253894,0.02538424,0.99967777,0,0)" style="fill:#000;fill-opacity:1;stroke:#892ca0;stroke-width:.8518728;stroke-linecap:square;stroke-linejoin:miter;stroke-miterlimit:4;stroke-dasharray:none;stroke-dashoffset:0;stroke-opacity:1"/><ellipse style="fill:#fff;fill-opacity:1;stroke:none;stroke-width:.8518728;stroke-linecap:square;stroke-linejoin:miter;stroke-miterlimit:4;stroke-dasharray:none;stroke-dashoffset:0;stroke-opacity:1" id="ellipse194140" cx="-1192.73" cy="-88.092" rx=".919" ry=".968" transform="matrix(-0.99967764,0.0253894,0.02538424,0.99967777,0,0)"/></g><ellipse style="opacity:1;fill:#f1f1f1;fill-opacity:1;stroke:none;stroke-width:.85187298;stroke-linecap:square;stroke-linejoin:miter;stroke-miterlimit:4;stroke-dasharray:none;stroke-dashoffset:5.99999952;stroke-opacity:1" id="ellipse194144" cx="1214.173" cy="-221.07" rx="1.219" ry="1.278" transform="matrix(0.99938194,-0.03515294,0.03512104,0.99938307,0,0)"/><path style="opacity:1;fill:#f1f1f1;fill-opacity:1;stroke:none;stroke-width:.85187304;stroke-linejoin:round;stroke-miterlimit:4;stroke-dasharray:none;stroke-opacity:1" id="path194146" d="m 1196.6606,-258.19566 a 8.2351559,7.2429689 0 0 0 -7.6956,4.68912 c 4.7591,0.2089 10.6723,0.19768 15.4021,0.0114 a 8.2351559,7.2429689 0 0 0 -7.7065,-4.7005 z"/></g><path style="opacity:1;fill:none;fill-opacity:1;stroke:#3c6eb4;stroke-width:.79374999;stroke-linejoin:round;stroke-miterlimit:4;stroke-dasharray:none;stroke-opacity:1" id="path194150" d="m 1219.0623,-197.2163 c -3.5719,1.43037 -11.1149,1.14699 -18.2221,1.17499 -7.1072,0.028 -15.5965,-0.27284 -17.0071,-1.69572"/><path style="opacity:1;fill:#d7d8da;fill-opacity:1;stroke:#000;stroke-width:.79374993;stroke-linejoin:round;stroke-miterlimit:4;stroke-dasharray:none;stroke-opacity:1" id="path194152" d="m 1198.4754,-191.15273 c 0,1.00704 0,1.99863 -0.017,2.94659 6.3077,1.15754 12.6043,1.18012 18.5208,0.0181 -0.042,-0.89578 -0.071,-1.85458 -0.1064,-2.86597 -0.1939,-5.53538 -4.2687,-9.41337 -9.2955,-9.41338 -5.0269,-1e-5 -9.1019,3.87807 -9.1019,9.31466 z"/><ellipse id="ellipse194154" cx="1206.631" cy="-148.395" rx="1.136" ry="1.191" transform="matrix(0.99938258,-0.03513486,0.03513911,0.99938243,0,0)" style="opacity:1;fill:#f1f1f1;fill-opacity:1;stroke:none;stroke-width:.79374999;stroke-linecap:square;stroke-linejoin:miter;stroke-miterlimit:4;stroke-dasharray:none;stroke-dashoffset:5.99999952;stroke-opacity:1"/><path id="path194156" d="m 1213.5138,-196.08059 c -0.253,-0.31355 -0.6505,-0.50546 -1.0534,-0.5086 -0.3799,-0.003 -0.7582,0.161 -1.0158,0.4403" style="fill:none;fill-opacity:1;stroke:#000;stroke-width:.5291667;stroke-linecap:square;stroke-linejoin:miter;stroke-miterlimit:4;stroke-dasharray:none;stroke-dashoffset:0;stroke-opacity:1"/><path style="fill:none;fill-opacity:1;stroke:#000;stroke-width:.5291667;stroke-linecap:square;stroke-linejoin:miter;stroke-miterlimit:4;stroke-dasharray:none;stroke-dashoffset:0;stroke-opacity:1" id="path194158" d="m 1202.0344,-196.04037 c 0.2304,-0.33054 0.6134,-0.54988 1.0151,-0.5813 0.3788,-0.0296 0.7676,0.10738 1.0442,0.36791"/><ellipse id="ellipse194160" cx="-1218.674" cy="-150.761" rx="1.432" ry="1.488" transform="matrix(-0.99938278,0.03512913,0.03514482,0.99938223,0,0)" style="fill:#000;fill-opacity:1;stroke:#892ca0;stroke-width:.79374987;stroke-linecap:square;stroke-linejoin:miter;stroke-miterlimit:4;stroke-dasharray:none;stroke-dashoffset:0;stroke-opacity:1"/><ellipse style="fill:#fff;fill-opacity:1;stroke:none;stroke-width:.79374987;stroke-linecap:square;stroke-linejoin:miter;stroke-miterlimit:4;stroke-dasharray:none;stroke-dashoffset:0;stroke-opacity:1" id="ellipse194162" cx="1219.11" cy="-151.179" rx=".704" ry=".741" transform="matrix(0.99938278,-0.03512913,0.03514482,0.99938223,0,0)"/><path id="path194164" d="m 1218.7033,-188.67623 -1.6617,0.47913 c -5.9787,1.17108 -12.2753,1.1485 -18.583,-0.009 l -2.5256,-0.47009" style="opacity:1;fill:none;fill-opacity:1;stroke:#3c6eb4;stroke-width:.79374993;stroke-linejoin:round;stroke-miterlimit:4;stroke-dasharray:none;stroke-opacity:1"/><g style="stroke:#60605b;stroke-width:.99047768;stroke-miterlimit:4;stroke-dasharray:none" id="g194168" transform="matrix(-0.54020821,-0.0266189,-0.02739623,0.52701539,1727.0536,-162.01736)"><path style="fill:none;fill-rule:evenodd;stroke:#60605b;stroke-width:.99047768;stroke-linecap:butt;stroke-linejoin:miter;stroke-miterlimit:4;stroke-dasharray:none;stroke-opacity:1" id="path194166" d="m 957.14608,-4.4502461 c -2.0377,0.8062397 -3.03766,2.4684328 -3.7999,4.05763317 m 3.65911,-4.99629867 c -2.45021,0.3102076 -3.99116,1.6666651 -5.21618,2.999397 m 4.53923,-3.8979785 c -2.17461,0.00852 -3.90258,0.727992 -5.25392,1.62519"/></g><g id="g194176" transform="matrix(0.53757364,-0.05856052,0.05991696,0.52442773,691.53583,-131.42451)" style="stroke:#60605b;stroke-width:.99047768;stroke-miterlimit:4;stroke-dasharray:none"><path style="fill:none;fill-rule:evenodd;stroke:#60605b;stroke-width:.99047768;stroke-linecap:butt;stroke-linejoin:miter;stroke-miterlimit:4;stroke-dasharray:none;stroke-opacity:1" id="path194170" d="m 956.32834,-6.2874931 c -2.17461,0.00852 -3.90258,0.727992 -5.25392,1.62519"/><path style="fill:none;fill-rule:evenodd;stroke:#60605b;stroke-width:.99047768;stroke-linecap:butt;stroke-linejoin:miter;stroke-miterlimit:4;stroke-dasharray:none;stroke-opacity:1" id="path194172" d="m 957.00529,-5.3889116 c -2.45021,0.3102076 -3.99116,1.6666651 -5.21618,2.999397"/><path style="fill:none;fill-rule:evenodd;stroke:#60605b;stroke-width:.99047768;stroke-linecap:butt;stroke-linejoin:miter;stroke-miterlimit:4;stroke-dasharray:none;stroke-opacity:1" id="path194174" d="m 956.99206,-4.4197862 c -2.0377,0.8062397 -3.03766,2.4684328 -3.7999,4.05763312"/></g><ellipse style="fill:#000;fill-opacity:1;stroke:#892ca0;stroke-width:.79374987;stroke-linecap:square;stroke-linejoin:miter;stroke-miterlimit:4;stroke-dasharray:none;stroke-dashoffset:0;stroke-opacity:1" id="ellipse194178" cx="1207.762" cy="-162.883" rx="1.432" ry="1.488" transform="matrix(0.99967797,-0.02537634,0.02539731,0.99967744,0,0)"/><ellipse id="ellipse194180" cx="-1207.325" cy="-163.301" rx=".704" ry=".741" transform="matrix(-0.99967797,0.02537634,0.02539731,0.99967744,0,0)" style="fill:#fff;fill-opacity:1;stroke:none;stroke-width:.79374987;stroke-linecap:square;stroke-linejoin:miter;stroke-miterlimit:4;stroke-dasharray:none;stroke-dashoffset:0;stroke-opacity:1"/><ellipse style="opacity:1;fill:#f1f1f1;fill-opacity:1;stroke:none;stroke-width:.79374999;stroke-linecap:square;stroke-linejoin:miter;stroke-miterlimit:4;stroke-dasharray:none;stroke-dashoffset:5.99999952;stroke-opacity:1" id="ellipse194182" cx="1221.184" cy="-147.884" rx="1.136" ry="1.191" transform="matrix(0.99938258,-0.03513486,0.03513911,0.99938243,0,0)"/><ellipse id="ellipse194184" cx="1214.015" cy="-149.088" rx="2.985" ry="2.754" transform="matrix(0.99941617,-0.03416617,0.0361353,0.99934691,0,0)" style="opacity:1;fill:#fff;fill-opacity:1;stroke:#60605b;stroke-width:.79375076;stroke-linecap:square;stroke-linejoin:miter;stroke-miterlimit:4;stroke-dasharray:none;stroke-dashoffset:5.99999952;stroke-opacity:1"/><path style="fill:gray;fill-opacity:1;stroke:#000;stroke-width:.5291667;stroke-linecap:square;stroke-linejoin:miter;stroke-miterlimit:4;stroke-dasharray:none;stroke-dashoffset:0;stroke-opacity:1" id="path194186" d="m 1209.0947,-191.32793 c -0.094,-0.24033 -0.1023,-0.66114 -0.3752,-0.72061 l -0.8127,-0.17709 -0.8115,0.18412 c -0.2721,0.0618 -0.2773,0.48269 -0.3691,0.72384 -0.094,0.24123 1.1883,1.01805 1.1883,1.01805 0,0 1.2743,-0.78785 1.1802,-1.02831 z"/><path style="opacity:1;fill:#ff8080;fill-opacity:1;stroke:#000;stroke-width:.5291667;stroke-linejoin:round;stroke-miterlimit:4;stroke-dasharray:none;stroke-opacity:1" id="path194188" d="m 1207.7699,-190.02101 c -0.07,0.11114 -0.1741,0.2003 -0.2946,0.25322 -0.1288,0.0562 -0.2743,0.0709 -0.4134,0.0495 -0.098,-0.0151 -0.1933,-0.0497 -0.2806,-0.0977 0,0.005 0,0.01 0,0.015 0,0.62103 0.5035,1.12448 1.1245,1.12448 0.621,0 1.1244,-0.50345 1.1244,-1.12448 10e-5,-0.005 10e-5,-0.008 0,-0.0129 -0.087,0.047 -0.1801,0.0808 -0.2774,0.0956 -0.1391,0.0212 -0.2847,0.007 -0.4135,-0.0495 -0.1204,-0.0529 -0.2242,-0.14208 -0.2945,-0.25322 -0.1839,-0.45256 -0.15,-0.33357 -0.2749,0 z"/><path style="opacity:1;fill:none;fill-opacity:1;stroke:#3c6eb4;stroke-width:.79374993;stroke-linejoin:round;stroke-miterlimit:4;stroke-dasharray:none;stroke-opacity:1" id="path194190" d="m 1208.9056,-185.61743 c -7.1727,0.14599 -10.811,-0.41013 -16.8091,-1.86816"/><path id="path194192" d="m 1210.5635,-183.66873 c -3.2099,0.35365 -5.8695,0.42038 -8.7157,0.008" style="opacity:1;fill:none;fill-opacity:1;stroke:#3c6eb4;stroke-width:.79374999;stroke-linejoin:round;stroke-miterlimit:4;stroke-dasharray:none;stroke-opacity:1"/><path id="path194194" d="m 1182.9959,-193.76305 c 0,0.81341 0,1.61437 -0.013,2.38006 4.5482,0.93499 9.0885,0.95323 13.3546,0.0146 -0.029,-0.72355 -0.052,-1.49801 -0.077,-2.31495 -0.1398,-4.47113 -3.2525,-6.51948 -6.6971,-6.51948 -3.4446,0 -6.5675,2.04843 -6.5675,6.43977 z" style="opacity:1;fill:#d7d8da;fill-opacity:1;stroke:#000;stroke-width:.79374993;stroke-linejoin:round;stroke-miterlimit:4;stroke-dasharray:none;stroke-opacity:1"/><path style="fill:none;fill-opacity:1;stroke:#000;stroke-width:.5291667;stroke-linecap:square;stroke-linejoin:miter;stroke-miterlimit:4;stroke-dasharray:none;stroke-dashoffset:0;stroke-opacity:1" id="path194196" d="m 1193.6324,-197.30544 c -0.184,-0.21557 -0.4648,-0.34527 -0.7482,-0.34568 -0.2696,-3.9e-4 -0.5374,0.11563 -0.7215,0.31258"/><path id="path194198" d="m 1185.4425,-197.28587 c 0.171,-0.22212 0.4411,-0.36483 0.721,-0.38091 0.2712,-0.0156 0.5472,0.0877 0.7416,0.27751" style="fill:none;fill-opacity:1;stroke:#000;stroke-width:.5291667;stroke-linecap:square;stroke-linejoin:miter;stroke-miterlimit:4;stroke-dasharray:none;stroke-dashoffset:0;stroke-opacity:1"/><ellipse style="fill:#000;fill-opacity:1;stroke:#892ca0;stroke-width:.79374999;stroke-linecap:square;stroke-linejoin:miter;stroke-miterlimit:4;stroke-dasharray:none;stroke-dashoffset:0;stroke-opacity:1" id="ellipse194200" cx="-1199.464" cy="-153.16" rx="1.256" ry="1.291" transform="matrix(-0.99939588,0.03475453,0.03552362,0.99936884,0,0)"/><ellipse id="ellipse194202" cx="1199.846" cy="-153.523" rx=".618" ry=".643" transform="matrix(0.99939588,-0.03475453,0.03552362,0.99936884,0,0)" style="fill:#fff;fill-opacity:1;stroke:none;stroke-width:.79374999;stroke-linecap:square;stroke-linejoin:miter;stroke-miterlimit:4;stroke-dasharray:none;stroke-dashoffset:0;stroke-opacity:1"/><ellipse id="ellipse194204" cx="1190.657" cy="-164.912" rx="1.256" ry="1.291" transform="matrix(0.99968481,-0.02510557,0.02567121,0.99967044,0,0)" style="fill:#000;fill-opacity:1;stroke:#892ca0;stroke-width:.79374993;stroke-linecap:square;stroke-linejoin:miter;stroke-miterlimit:4;stroke-dasharray:none;stroke-dashoffset:0;stroke-opacity:1"/><path id="path194206" d="m 2154.0312,-434.57031 c -4.4701,0.15199 -7.9731,3.60605 -7.8242,7.71484 0.052,1.39375 0.5293,4.24714 1.377,5.40104 4.4988,0.24291 8.9701,0.26971 13.3222,0.0957 1.0211,-1.32719 1.5437,-4.42574 1.4883,-6.04752 -0.1491,-4.10861 -3.8934,-7.31601 -8.3633,-7.16406 z" transform="matrix(0.26458334,0,0,0.26458334,619.60435,-79.242757)" style="opacity:1;fill:#fff;fill-opacity:1;stroke:#60605b;stroke-width:2.99999976;stroke-linecap:square;stroke-linejoin:miter;stroke-miterlimit:4;stroke-dasharray:none;stroke-dashoffset:5.99999952;stroke-opacity:1"/><ellipse style="fill:#fff;fill-opacity:1;stroke:none;stroke-width:.79374993;stroke-linecap:square;stroke-linejoin:miter;stroke-miterlimit:4;stroke-dasharray:none;stroke-dashoffset:0;stroke-opacity:1" id="ellipse194208" cx="-1190.275" cy="-165.275" rx=".618" ry=".643" transform="matrix(-0.99968481,0.02510557,0.02567121,0.99967044,0,0)"/><path id="path194210" d="m 1190.4633,-192.29709 c -0.069,-0.17514 -0.076,-0.4818 -0.2773,-0.52514 l -0.6006,-0.12906 -0.5998,0.13418 c -0.2011,0.045 -0.2049,0.35176 -0.2728,0.52749 -0.069,0.1758 0.8783,0.7419 0.8783,0.7419 0,0 0.9418,-0.57414 0.8722,-0.74937 z" style="fill:gray;fill-opacity:1;stroke:#000;stroke-width:.5291667;stroke-linecap:square;stroke-linejoin:miter;stroke-miterlimit:4;stroke-dasharray:none;stroke-dashoffset:0;stroke-opacity:1"/><path id="path194212" d="m 1181.9907,-189.53092 c 2.7637,0.72901 4.8155,0.94562 7.7375,0.95618" style="opacity:1;fill:none;fill-opacity:1;stroke:#3c6eb4;stroke-width:.79374993;stroke-linejoin:round;stroke-miterlimit:4;stroke-dasharray:none;stroke-opacity:1"/><ellipse style="opacity:1;fill:#f1f1f1;fill-opacity:1;stroke:none;stroke-width:.79374999;stroke-linecap:square;stroke-linejoin:miter;stroke-miterlimit:4;stroke-dasharray:none;stroke-dashoffset:5.99999952;stroke-opacity:1" id="ellipse194214" cx="1199.908" cy="-149.778" rx=".935" ry=".98" transform="matrix(0.99938258,-0.03513486,0.03513911,0.99938243,0,0)"/><ellipse id="ellipse194216" cx="1191.446" cy="-150.076" rx=".935" ry=".98" transform="matrix(0.99938258,-0.03513486,0.03513911,0.99938243,0,0)" style="opacity:1;fill:#f1f1f1;fill-opacity:1;stroke:none;stroke-width:.79374999;stroke-linecap:square;stroke-linejoin:miter;stroke-miterlimit:4;stroke-dasharray:none;stroke-dashoffset:5.99999952;stroke-opacity:1"/><path style="opacity:1;fill:none;fill-opacity:1;stroke:#3c6eb4;stroke-width:.79374993;stroke-linejoin:round;stroke-miterlimit:4;stroke-dasharray:none;stroke-opacity:1" id="path194218" d="m 1181.2324,-191.77986 c 5.5275,1.45801 11.8484,1.34886 16.4006,0.10007"/></g></g></g></svg>